<svg width="170" height="41" viewBox="0 0 170 41" fill="none" xmlns="http://www.w3.org/2000/svg">
<path d="M20.7802 41C8.59869 41 0 32.3176 0 20.5C0 8.68236 8.59869 0 20.7802 0C31.23 0 39.1121 6.39118 41.0826 15.7368H30.8717C29.3191 11.6971 25.6766 9.04412 20.7802 9.04412C14.152 9.04412 9.79295 13.8676 9.79295 20.5C9.79295 27.1324 14.152 31.9559 20.7802 31.9559C25.6766 31.9559 29.3191 29.3029 30.8717 25.2632H41.0826C39.1121 34.6088 31.23 41 20.7802 41Z" fill="white"/>
<path d="M45.0223 40.2162V0.783824H54.6958V31.1721H73.1472V40.2162H45.0223Z" fill="white"/>
<path d="M96.021 41C83.8395 41 75.2409 32.3176 75.2409 20.5C75.2409 8.68236 83.8395 0 96.021 0C108.203 0 116.801 8.68236 116.801 20.5C116.801 32.3176 108.203 41 96.021 41ZM96.021 31.9559C102.649 31.9559 107.008 27.1324 107.008 20.5C107.008 13.8676 102.649 9.04412 96.021 9.04412C89.3929 9.04412 85.0338 13.8676 85.0338 20.5C85.0338 27.1324 89.3929 31.9559 96.021 31.9559Z" fill="white"/>
<path d="M125.238 41C121.953 41 119.505 38.5279 119.505 35.2118C119.505 31.8956 121.953 29.4235 125.238 29.4235C128.522 29.4235 130.97 31.8956 130.97 35.2118C130.97 38.5279 128.522 41 125.238 41Z" fill="white"/>
<path d="M134.292 40.2162L141.875 0.783824H156.326C165.581 0.783824 170 5.54706 170 13.2044C170 22.4897 163.551 28.5794 152.803 28.5794H146.234L143.965 40.2162H134.292ZM147.966 19.5353H154.057C158.237 19.5353 160.267 16.8221 160.267 13.7471C160.267 11.1544 158.595 9.82794 155.37 9.82794H149.817L147.966 19.5353Z" fill="white"/>
</svg>

